<svg width="17" height="16" viewBox="0 0 17 16" fill="none" xmlns="http://www.w3.org/2000/svg">
<g clip-path="url(#clip0_1_26)">
<path d="M16.5105 3.31645C15.9087 3.57689 15.2632 3.75378 14.5851 3.83289C15.2768 3.42667 15.8079 2.78311 16.0584 2.01778C15.4121 2.39378 14.694 2.66667 13.9306 2.81333C13.3187 2.176 12.4472 1.77778 11.4831 1.77778C9.63212 1.77778 8.13062 3.24622 8.13062 5.05956C8.13062 5.31645 8.15967 5.56711 8.21777 5.808C5.43082 5.67022 2.96069 4.36356 1.30759 2.37867C1.01891 2.86311 0.853687 3.42756 0.853687 4.02756C0.853687 5.16711 1.44557 6.17156 2.3452 6.76C1.79598 6.74311 1.27854 6.59556 0.826453 6.35022C0.826453 6.36356 0.826453 6.37689 0.826453 6.39111C0.826453 7.98133 1.98208 9.30845 3.51536 9.60978C3.23394 9.68445 2.938 9.72444 2.63207 9.72444C2.41692 9.72444 2.20631 9.70489 2.00206 9.66578C2.42781 10.9707 3.66696 11.9191 5.13306 11.9458C3.98651 12.8267 2.54129 13.3511 0.970793 13.3511C0.699361 13.3511 0.433375 13.3351 0.171021 13.304C1.65437 14.2356 3.41641 14.7787 5.31008 14.7787C11.4759 14.7787 14.8483 9.77689 14.8483 5.44C14.8483 5.29689 14.8447 5.15467 14.8375 5.01422C15.492 4.55378 16.0612 3.97511 16.5105 3.31645Z" fill="white"/>
</g>
<defs>
<clipPath id="clip0_1_26">
<rect width="16.3404" height="16" fill="white" transform="translate(0.170166)"/>
</clipPath>
</defs>
</svg>
